<svg id="Layer_1" data-name="Layer 1" xmlns="http://www.w3.org/2000/svg" viewBox="0 0 162.87 71.83"><defs><style>.cls-1{fill:#2bbdbe;}.cls-2{fill:#9e9d9e;}</style></defs><title>DellaHonestlyLogo</title><path class="cls-1" d="M371.62,401.83a11.4,11.4,0,0,1-3.92,3.79,11.26,11.26,0,0,1-6.06,1.64,8.05,8.05,0,0,1-5.09-1.34,4.53,4.53,0,0,1-1.67-3.75,5.43,5.43,0,0,1,1-3.35,8.55,8.55,0,0,1,3.08-2.38,31.06,31.06,0,0,1,5.22-1.94q3.15-.9,7.44-2Zm8.77-13.71a12.39,12.39,0,0,0-1.31-6,10,10,0,0,0-3.52-3.76,15.11,15.11,0,0,0-5.09-1.95,30.64,30.64,0,0,0-6-.57,25.78,25.78,0,0,0-6.8.82,17.43,17.43,0,0,0-5,2.14,10.29,10.29,0,0,0-3.08,3,6.17,6.17,0,0,0-1.07,3.35,4.82,4.82,0,0,0,1.17,3.45,4.61,4.61,0,0,0,3.52,1.24,4.9,4.9,0,0,0,3.55-1.17,4.06,4.06,0,0,0,1.21-3,3,3,0,0,0-1.07-2.48,4.68,4.68,0,0,0-2.61-1,10.51,10.51,0,0,1,3.72-1.81,20.94,20.94,0,0,1,5.73-.67,8.77,8.77,0,0,1,3.48.64,6.62,6.62,0,0,1,3.85,4.32,11,11,0,0,1,.44,3.15v2.08q-2.95.8-5.93,1.34t-5.76,1.11q-2.78.57-5.23,1.27a15.67,15.67,0,0,0-4.29,1.91,8.93,8.93,0,0,0-2.88,3,8.71,8.71,0,0,0-1,4.45,8.87,8.87,0,0,0,2.91,7q2.92,2.58,9.21,2.58a19,19,0,0,0,4.89-.6,16.79,16.79,0,0,0,4.09-1.64,14.16,14.16,0,0,0,3.12-2.38,11.29,11.29,0,0,0,2-2.81,15.2,15.2,0,0,0,.74,2.55,6.66,6.66,0,0,0,1.34,2.14,6.47,6.47,0,0,0,2.14,1.51,7.53,7.53,0,0,0,3.08.57,10.62,10.62,0,0,0,3-.4,5.83,5.83,0,0,0,2.38-1.34,6,6,0,0,0,1.54-2.48,11.53,11.53,0,0,0,.54-3.76v-3h-3.15v4a4.4,4.4,0,0,1-.47,2,1.5,1.5,0,0,1-1.41.91q-2,0-2-3Z" transform="translate(-224.56 -359.76)"/><path class="cls-1" d="M339.58,359.76H324.64v3.82q5.76,0,5.76,3v37.91q0,3-5.76,3v3.82H345.4v-3.82q-5.83,0-5.83-3Z" transform="translate(-224.56 -359.76)"/><path class="cls-1" d="M316.35,359.76H301.41v3.82q5.76,0,5.76,3v37.91q0,3-5.76,3v3.82h20.77v-3.82q-5.83,0-5.83-3Z" transform="translate(-224.56 -359.76)"/><path class="cls-1" d="M276.1,390.3q.53-5.66,3.08-8.16a8.49,8.49,0,0,1,6.16-2.49,7.63,7.63,0,0,1,3.65.84,7.87,7.87,0,0,1,2.65,2.29,10.27,10.27,0,0,1,1.61,3.37,15.43,15.43,0,0,1,.53,4.14Zm26,3.48q0-18-16.88-18a20.84,20.84,0,0,0-7.74,1.34,15.77,15.77,0,0,0-9.31,9.56,21.63,21.63,0,0,0-1.24,7.48,21.85,21.85,0,0,0,1.57,8.89,14.75,14.75,0,0,0,4.15,5.6,15.18,15.18,0,0,0,5.86,2.92,27.22,27.22,0,0,0,6.77.84,18,18,0,0,0,6.2-1,14.58,14.58,0,0,0,4.52-2.58,13.73,13.73,0,0,0,3-3.68,18.73,18.73,0,0,0,1.77-4.29l-4.15-.8a9.91,9.91,0,0,1-4.09,6.09,12.32,12.32,0,0,1-6.76,1.88,8.11,8.11,0,0,1-7.3-3.72q-2.41-3.72-2.55-10.62Z" transform="translate(-224.56 -359.76)"/><path class="cls-1" d="M248,381.26a7.83,7.83,0,0,1,2.91,2.81,13.2,13.2,0,0,1,1.61,4.32,28.25,28.25,0,0,1,.5,5.53,27.71,27.71,0,0,1-.5,5.49,13.19,13.19,0,0,1-1.61,4.29,7.83,7.83,0,0,1-2.91,2.81,9,9,0,0,1-4.42,1,9.38,9.38,0,0,1-4.49-1,8.19,8.19,0,0,1-3-2.81,13.26,13.26,0,0,1-1.74-4.29,24.51,24.51,0,0,1-.57-5.49,25,25,0,0,1,.57-5.53,13.25,13.25,0,0,1,1.74-4.32,8.19,8.19,0,0,1,3-2.81,9.38,9.38,0,0,1,4.49-1,9,9,0,0,1,4.42,1m13.4-21.5h-15v3.82q5.83,0,5.83,3v12.59a10.42,10.42,0,0,0-4.25-2.41,19.3,19.3,0,0,0-5.93-.87,22.16,22.16,0,0,0-6.56,1,14.41,14.41,0,0,0-5.56,3.18,16.12,16.12,0,0,0-3.89,5.69,21.85,21.85,0,0,0-1.47,8.51,23.64,23.64,0,0,0,1.31,8.34,15.51,15.51,0,0,0,3.55,5.66,13.54,13.54,0,0,0,5.19,3.21,20.56,20.56,0,0,0,14.4-.64,10.29,10.29,0,0,0,5.09-5.06l.53,5.56h12.66v-3.82q-5.89,0-5.89-3Z" transform="translate(-224.56 -359.76)"/><path class="cls-2" d="M234.58,428.2h-1.63v3.24h-1.64v-8.67h4.11a2.75,2.75,0,0,1,3.06,2.72,2.49,2.49,0,0,1-2.22,2.55l2.29,3.41h-1.89Zm.62-4.09h-2.24v2.76h2.24a1.39,1.39,0,1,0,0-2.76Z" transform="translate(-224.56 -359.76)"/><path class="cls-2" d="M239.83,422.77h6.41v1.34h-4.77v2.25h4.67v1.34h-4.67v2.41h4.77v1.34h-6.41Z" transform="translate(-224.56 -359.76)"/><path class="cls-2" d="M253.73,429.77h-4.43l-.69,1.66h-1.79l3.67-8.67h2l3.67,8.67h-1.79Zm-4-1.34h3.51l-1.75-4.38Z" transform="translate(-224.56 -359.76)"/><path class="cls-2" d="M256.95,422.77h1.64v7.33h4.12v1.34h-5.76Z" transform="translate(-224.56 -359.76)"/><path class="cls-2" d="M267.13,422.77h6.41v1.34h-4.77v2.25h4.67v1.34h-4.67v2.41h4.77v1.34h-6.41Z" transform="translate(-224.56 -359.76)"/><path class="cls-2" d="M275.21,429a4.18,4.18,0,0,0,3,1.2c1.35,0,1.88-.61,1.88-1.18,0-.78-1-1-2.13-1.29-1.53-.35-3.32-.77-3.32-2.6,0-1.43,1.36-2.54,3.41-2.54a5.09,5.09,0,0,1,3.51,1.21l-.94,1.13a4,4,0,0,0-2.71-1c-1,0-1.58.43-1.58,1.08s1,.9,2.06,1.16c1.54.36,3.38.81,3.38,2.69,0,1.44-1.09,2.68-3.62,2.68a5.22,5.22,0,0,1-3.8-1.38Z" transform="translate(-224.56 -359.76)"/><path class="cls-2" d="M285.13,424.11H282.3v-1.34h7.31v1.34h-2.83v7.33h-1.64Z" transform="translate(-224.56 -359.76)"/><path class="cls-2" d="M295.52,429.77h-4.43l-.69,1.66H288.6l3.67-8.67h2l3.67,8.67H296.2Zm-4-1.34h3.51l-1.75-4.38Z" transform="translate(-224.56 -359.76)"/><path class="cls-2" d="M299.84,424.11H297v-1.34h7.31v1.34h-2.83v7.33h-1.64Z" transform="translate(-224.56 -359.76)"/><path class="cls-2" d="M305.23,422.77h6.41v1.34h-4.77v2.25h4.67v1.34h-4.67v2.41h4.77v1.34h-6.41Z" transform="translate(-224.56 -359.76)"/><path class="cls-2" d="M322.76,427.65H317.9v3.78h-1.64v-8.67h1.64v3.55h4.87v-3.55h1.64v8.67h-1.64Z" transform="translate(-224.56 -359.76)"/><path class="cls-2" d="M330.5,422.62a4.49,4.49,0,1,1-4.78,4.49A4.48,4.48,0,0,1,330.5,422.62Zm0,1.35a3.13,3.13,0,1,0,3.1,3.13A3,3,0,0,0,330.5,424Z" transform="translate(-224.56 -359.76)"/><path class="cls-2" d="M338.22,425.12v6.32h-1.64v-8.67h1.68l4.78,6.15v-6.15h1.64v8.67H343.1Z" transform="translate(-224.56 -359.76)"/><path class="cls-2" d="M346.46,422.77h6.41v1.34H348.1v2.25h4.67v1.34H348.1v2.41h4.77v1.34h-6.41Z" transform="translate(-224.56 -359.76)"/><path class="cls-2" d="M354.54,429a4.18,4.18,0,0,0,3,1.2c1.35,0,1.88-.61,1.88-1.18,0-.78-1-1-2.13-1.29-1.53-.35-3.32-.77-3.32-2.6,0-1.43,1.36-2.54,3.41-2.54a5.09,5.09,0,0,1,3.51,1.21L359.9,425a4,4,0,0,0-2.71-1c-1,0-1.58.43-1.58,1.08s1,.9,2.06,1.16c1.54.36,3.38.81,3.38,2.69,0,1.44-1.09,2.68-3.62,2.68a5.21,5.21,0,0,1-3.8-1.38Z" transform="translate(-224.56 -359.76)"/><path class="cls-2" d="M364.46,424.11h-2.83v-1.34h7.31v1.34H366.1v7.33h-1.64Z" transform="translate(-224.56 -359.76)"/><path class="cls-2" d="M369.85,422.77h1.64v7.33h4.12v1.34h-5.76Z" transform="translate(-224.56 -359.76)"/><path class="cls-2" d="M377.89,427.84l-3.63-5.07h1.88l2.58,3.72,2.55-3.72h1.88l-3.62,5.07v3.6h-1.64Z" transform="translate(-224.56 -359.76)"/></svg>